<mxfile host="app.diagrams.net" modified="2023-04-02T07:05:51.951Z" agent="Mozilla/5.0 (Macintosh; Intel Mac OS X 10_15_7) AppleWebKit/537.36 (KHTML, like Gecko) Chrome/111.0.0.0 Safari/537.36" etag="ksBOBjai5zHTbogF9Ttc" version="21.1.2" type="github">
  <diagram name="第 1 页" id="9EP5WUrMfCNoD3DvNR0A">
    <mxGraphModel dx="954" dy="647" grid="1" gridSize="10" guides="1" tooltips="1" connect="1" arrows="1" fold="1" page="1" pageScale="1" pageWidth="827" pageHeight="1169" math="0" shadow="0">
      <root>
        <mxCell id="0" />
        <mxCell id="1" parent="0" />
        <mxCell id="PbQRr-aG7gShViIj6FRr-2" value="chrome" style="swimlane;whiteSpace=wrap;html=1;fillColor=#f8cecc;strokeColor=#b85450;" parent="1" vertex="1">
          <mxGeometry x="240" y="40" width="200" height="200" as="geometry" />
        </mxCell>
        <mxCell id="PbQRr-aG7gShViIj6FRr-1" value="dashboard" style="rounded=0;whiteSpace=wrap;html=1;fillColor=#dae8fc;strokeColor=#6c8ebf;" parent="PbQRr-aG7gShViIj6FRr-2" vertex="1">
          <mxGeometry x="10" y="30" width="120" height="60" as="geometry" />
        </mxCell>
        <mxCell id="PbQRr-aG7gShViIj6FRr-3" value="locale" style="strokeWidth=2;html=1;shape=mxgraph.flowchart.database;whiteSpace=wrap;fillColor=#e1d5e7;strokeColor=#9673a6;" parent="PbQRr-aG7gShViIj6FRr-2" vertex="1">
          <mxGeometry x="130" y="120" width="60" height="60" as="geometry" />
        </mxCell>
        <mxCell id="PbQRr-aG7gShViIj6FRr-8" style="edgeStyle=orthogonalEdgeStyle;rounded=0;orthogonalLoop=1;jettySize=auto;html=1;entryX=1.008;entryY=0.4;entryDx=0;entryDy=0;entryPerimeter=0;exitX=1;exitY=0.5;exitDx=0;exitDy=0;shape=flexArrow;fillColor=#d5e8d4;strokeColor=#82b366;" parent="1" source="PbQRr-aG7gShViIj6FRr-5" target="PbQRr-aG7gShViIj6FRr-1" edge="1">
          <mxGeometry relative="1" as="geometry">
            <mxPoint x="640" y="160" as="targetPoint" />
          </mxGeometry>
        </mxCell>
        <mxCell id="PbQRr-aG7gShViIj6FRr-5" value="shenyu-admin service" style="swimlane;whiteSpace=wrap;html=1;fillColor=#b1ddf0;strokeColor=#10739e;" parent="1" vertex="1">
          <mxGeometry x="240" y="330" width="500" height="200" as="geometry" />
        </mxCell>
        <mxCell id="PbQRr-aG7gShViIj6FRr-15" style="edgeStyle=orthogonalEdgeStyle;rounded=0;orthogonalLoop=1;jettySize=auto;html=1;exitX=0.5;exitY=1;exitDx=0;exitDy=0;entryX=0.5;entryY=0;entryDx=0;entryDy=0;" parent="PbQRr-aG7gShViIj6FRr-5" source="PbQRr-aG7gShViIj6FRr-10" target="PbQRr-aG7gShViIj6FRr-11" edge="1">
          <mxGeometry relative="1" as="geometry" />
        </mxCell>
        <mxCell id="PbQRr-aG7gShViIj6FRr-18" value="" style="edgeStyle=orthogonalEdgeStyle;rounded=0;orthogonalLoop=1;jettySize=auto;html=1;dashed=1;dashPattern=8 8;" parent="PbQRr-aG7gShViIj6FRr-5" source="PbQRr-aG7gShViIj6FRr-10" target="PbQRr-aG7gShViIj6FRr-12" edge="1">
          <mxGeometry relative="1" as="geometry" />
        </mxCell>
        <mxCell id="PbQRr-aG7gShViIj6FRr-10" value="resolver" style="rounded=1;whiteSpace=wrap;html=1;fillColor=#bac8d3;strokeColor=#23445d;shadow=1;" parent="PbQRr-aG7gShViIj6FRr-5" vertex="1">
          <mxGeometry x="106" y="30" width="90" height="30" as="geometry" />
        </mxCell>
        <mxCell id="PbQRr-aG7gShViIj6FRr-16" style="edgeStyle=orthogonalEdgeStyle;rounded=0;orthogonalLoop=1;jettySize=auto;html=1;entryX=0.5;entryY=0;entryDx=0;entryDy=0;" parent="PbQRr-aG7gShViIj6FRr-5" source="PbQRr-aG7gShViIj6FRr-11" target="PbQRr-aG7gShViIj6FRr-14" edge="1">
          <mxGeometry relative="1" as="geometry" />
        </mxCell>
        <mxCell id="PbQRr-aG7gShViIj6FRr-11" value="process" style="shape=process;whiteSpace=wrap;html=1;backgroundOutline=1;fillColor=#d5e8d4;strokeColor=#82b366;" parent="PbQRr-aG7gShViIj6FRr-5" vertex="1">
          <mxGeometry x="96" y="80" width="110" height="30" as="geometry" />
        </mxCell>
        <mxCell id="PbQRr-aG7gShViIj6FRr-21" style="edgeStyle=orthogonalEdgeStyle;rounded=0;orthogonalLoop=1;jettySize=auto;html=1;entryX=1;entryY=0.5;entryDx=0;entryDy=0;dashed=1;dashPattern=8 8;" parent="PbQRr-aG7gShViIj6FRr-5" source="PbQRr-aG7gShViIj6FRr-12" target="PbQRr-aG7gShViIj6FRr-14" edge="1">
          <mxGeometry relative="1" as="geometry">
            <Array as="points">
              <mxPoint x="256" y="155" />
            </Array>
          </mxGeometry>
        </mxCell>
        <mxCell id="PbQRr-aG7gShViIj6FRr-12" value="locale" style="shape=dataStorage;whiteSpace=wrap;html=1;fixedSize=1;fillColor=#b0e3e6;strokeColor=#0e8088;" parent="PbQRr-aG7gShViIj6FRr-5" vertex="1">
          <mxGeometry x="226" y="30" width="50" height="30" as="geometry" />
        </mxCell>
        <mxCell id="PbQRr-aG7gShViIj6FRr-14" value="converter" style="rounded=1;whiteSpace=wrap;html=1;fillColor=#d0cee2;strokeColor=#56517e;shadow=1;" parent="PbQRr-aG7gShViIj6FRr-5" vertex="1">
          <mxGeometry x="106" y="140" width="90" height="30" as="geometry" />
        </mxCell>
        <mxCell id="PbQRr-aG7gShViIj6FRr-22" value="resouces" style="swimlane;fontStyle=0;childLayout=stackLayout;horizontal=1;startSize=30;horizontalStack=0;resizeParent=1;resizeParentMax=0;resizeLast=0;collapsible=1;marginBottom=0;whiteSpace=wrap;html=1;" parent="PbQRr-aG7gShViIj6FRr-5" vertex="1">
          <mxGeometry x="306" y="50" width="110" height="120" as="geometry" />
        </mxCell>
        <mxCell id="PbQRr-aG7gShViIj6FRr-23" value="en" style="text;strokeColor=none;fillColor=none;align=left;verticalAlign=middle;spacingLeft=4;spacingRight=4;overflow=hidden;points=[[0,0.5],[1,0.5]];portConstraint=eastwest;rotatable=0;whiteSpace=wrap;html=1;" parent="PbQRr-aG7gShViIj6FRr-22" vertex="1">
          <mxGeometry y="30" width="110" height="30" as="geometry" />
        </mxCell>
        <mxCell id="PbQRr-aG7gShViIj6FRr-24" value="cn" style="text;strokeColor=none;fillColor=none;align=left;verticalAlign=middle;spacingLeft=4;spacingRight=4;overflow=hidden;points=[[0,0.5],[1,0.5]];portConstraint=eastwest;rotatable=0;whiteSpace=wrap;html=1;" parent="PbQRr-aG7gShViIj6FRr-22" vertex="1">
          <mxGeometry y="60" width="110" height="30" as="geometry" />
        </mxCell>
        <mxCell id="PbQRr-aG7gShViIj6FRr-25" value="jp" style="text;strokeColor=none;fillColor=none;align=left;verticalAlign=middle;spacingLeft=4;spacingRight=4;overflow=hidden;points=[[0,0.5],[1,0.5]];portConstraint=eastwest;rotatable=0;whiteSpace=wrap;html=1;" parent="PbQRr-aG7gShViIj6FRr-22" vertex="1">
          <mxGeometry y="90" width="110" height="30" as="geometry" />
        </mxCell>
        <mxCell id="hdptFMO0j1iE_f0lNOie-1" value="success message" style="text;html=1;align=center;verticalAlign=middle;resizable=0;points=[];autosize=1;strokeColor=none;fillColor=none;" vertex="1" parent="PbQRr-aG7gShViIj6FRr-5">
          <mxGeometry x="36" y="110" width="120" height="30" as="geometry" />
        </mxCell>
        <mxCell id="hdptFMO0j1iE_f0lNOie-2" value="error message" style="text;html=1;align=center;verticalAlign=middle;resizable=0;points=[];autosize=1;strokeColor=none;fillColor=none;" vertex="1" parent="PbQRr-aG7gShViIj6FRr-5">
          <mxGeometry x="156" y="110" width="100" height="30" as="geometry" />
        </mxCell>
        <mxCell id="PbQRr-aG7gShViIj6FRr-4" style="edgeStyle=orthogonalEdgeStyle;rounded=0;orthogonalLoop=1;jettySize=auto;html=1;shape=flexArrow;fillColor=#dae8fc;strokeColor=#6c8ebf;" parent="1" source="PbQRr-aG7gShViIj6FRr-1" target="PbQRr-aG7gShViIj6FRr-5" edge="1">
          <mxGeometry relative="1" as="geometry">
            <mxPoint x="310" y="320" as="targetPoint" />
            <Array as="points">
              <mxPoint x="310" y="260" />
              <mxPoint x="490" y="260" />
            </Array>
          </mxGeometry>
        </mxCell>
        <mxCell id="PbQRr-aG7gShViIj6FRr-6" value="request" style="text;html=1;align=center;verticalAlign=middle;resizable=0;points=[];autosize=1;strokeColor=none;fillColor=none;" parent="1" vertex="1">
          <mxGeometry x="250" y="135" width="60" height="30" as="geometry" />
        </mxCell>
        <mxCell id="PbQRr-aG7gShViIj6FRr-9" value="response" style="text;html=1;align=center;verticalAlign=middle;resizable=0;points=[];autosize=1;strokeColor=none;fillColor=none;" parent="1" vertex="1">
          <mxGeometry x="520" y="60" width="70" height="30" as="geometry" />
        </mxCell>
      </root>
    </mxGraphModel>
  </diagram>
</mxfile>
